<?xml version="1.0" encoding="UTF-8" standalone="no"?>
<!-- Created with Inkscape (http://www.inkscape.org/) -->

<svg
   xmlns:dc="http://purl.org/dc/elements/1.1/"
   xmlns:cc="http://creativecommons.org/ns#"
   xmlns:rdf="http://www.w3.org/1999/02/22-rdf-syntax-ns#"
   xmlns:svg="http://www.w3.org/2000/svg"
   xmlns="http://www.w3.org/2000/svg"
   xmlns:sodipodi="http://sodipodi.sourceforge.net/DTD/sodipodi-0.dtd"
   xmlns:inkscape="http://www.inkscape.org/namespaces/inkscape"
   width="744.09448819"
   height="1052.3622047"
   id="svg2"
   version="1.1"
   inkscape:version="0.48.5 r10040"
   sodipodi:docname="新建文档 1">
  <defs
     id="defs4" />
  <sodipodi:namedview
     id="base"
     pagecolor="#ffffff"
     bordercolor="#666666"
     borderopacity="1.0"
     inkscape:pageopacity="0.0"
     inkscape:pageshadow="2"
     inkscape:zoom="0.35"
     inkscape:cx="32.142857"
     inkscape:cy="520"
     inkscape:document-units="px"
     inkscape:current-layer="layer1"
     showgrid="false"
     inkscape:window-width="1366"
     inkscape:window-height="706"
     inkscape:window-x="-8"
     inkscape:window-y="-8"
     inkscape:window-maximized="1" />
  <metadata
     id="metadata7">
    <rdf:RDF>
      <cc:Work
         rdf:about="">
        <dc:format>image/svg+xml</dc:format>
        <dc:type
           rdf:resource="http://purl.org/dc/dcmitype/StillImage" />
        <dc:title></dc:title>
      </cc:Work>
    </rdf:RDF>
  </metadata>
  <g
     inkscape:label="Layer 1"
     inkscape:groupmode="layer"
     id="layer1">
    <path
       sodipodi:type="arc"
       style="fill:#ff0000;fill-rule:evenodd;stroke:#000000;stroke-width:1px;stroke-linecap:butt;stroke-linejoin:miter;stroke-opacity:1"
       id="path2987"
       sodipodi:cx="134.28572"
       sodipodi:cy="395.21933"
       sodipodi:rx="234.28572"
       sodipodi:ry="225.71428"
       d="m 368.57144,395.21933 a 234.28572,225.71428 0 1 1 -468.57144,0 234.28572,225.71428 0 1 1 468.57144,0 z"
       transform="translate(222.85714,120)" />
    <path
       style="fill:#b3b3b3;stroke:none"
       d="M 320.31357,736.42213 C 264.98967,726.3523 220.37409,702.20475 183.82309,662.54858 161.3489,638.16513 148.43833,617.02767 137.99656,587.52047 92.710121,459.54631 172.08131,326.09649 311.28571,296.16277 c 23.8083,-5.1196 75.64021,-4.47797 99.41755,1.23069 73.80628,17.72002 138.40965,72.54522 163.0752,138.39264 12.39857,33.09944 14.35885,43.9198 14.33871,79.14751 -0.0351,61.47766 -18.748,107.3084 -62.2246,152.39743 -42.95854,44.5518 -96.97817,68.31157 -160.32114,70.51497 -17.28572,0.60129 -37.65176,-0.0394 -45.25786,-1.42388 l 0,0 z"
       id="path2991"
       inkscape:connector-curvature="0" />
    <path
       style="fill:#d38d5f"
       d="M 301.28571,730.71864 C 194.95834,702.36581 122.15265,607.23233 127.78802,504.01333 c 5.00873,-91.74113 64.33332,-166.64795 157.32914,-198.65325 27.90647,-9.60426 30.62319,-9.99152 70.45427,-10.0431 48.36722,-0.0626 64.57654,3.51265 104.28571,23.00231 57.39075,28.16796 96.60949,72.81768 118.74232,135.18575 5.64891,15.91802 6.60943,24.28647 6.72271,58.57143 0.11029,33.36781 -0.9508,43.78982 -6.39954,62.85714 -20.01392,70.0368 -83.58166,131.68786 -157.63692,152.88394 -32.0534,9.17432 -91.11939,10.60229 -120,2.90109 z"
       id="path2993"
       inkscape:connector-curvature="0" />
    <path
       sodipodi:type="arc"
       style="fill:#e6e6e6"
       id="path2995"
       sodipodi:cx="281.42856"
       sodipodi:cy="433.79074"
       sodipodi:rx="78.571426"
       sodipodi:ry="24.285715"
       d="m 359.99998,433.79074 a 78.571426,24.285715 0 1 1 -157.14285,0 78.571426,24.285715 0 1 1 157.14285,0 z"
       transform="translate(-25.714286,45.000006)" />
    <path
       sodipodi:type="arc"
       style="fill:#e6e6e6"
       id="path2995-1"
       sodipodi:cx="281.42856"
       sodipodi:cy="433.79074"
       sodipodi:rx="78.571426"
       sodipodi:ry="24.285715"
       d="m 359.99998,433.79074 a 78.571426,24.285715 0 1 1 -157.14285,0 78.571426,24.285715 0 1 1 157.14285,0 z"
       transform="translate(172.85715,45.000006)" />
    <path
       sodipodi:type="arc"
       style="fill:#6c5353"
       id="path3015"
       sodipodi:cx="248.57143"
       sodipodi:cy="465.21933"
       sodipodi:rx="28.571428"
       sodipodi:ry="24.285715"
       d="m 277.14285,465.21933 a 28.571428,24.285715 0 1 1 -57.14285,0 28.571428,24.285715 0 1 1 57.14285,0 z"
       transform="translate(2.8571429,15.142857)" />
    <path
       sodipodi:type="arc"
       style="fill:#6c5353"
       id="path3015-7"
       sodipodi:cx="248.57143"
       sodipodi:cy="465.21933"
       sodipodi:rx="28.571428"
       sodipodi:ry="24.285715"
       d="m 277.14285,465.21933 a 28.571428,24.285715 0 1 1 -57.14285,0 28.571428,24.285715 0 1 1 57.14285,0 z"
       transform="translate(208.57143,15.714281)" />
    <path
       sodipodi:type="star"
       style="fill:#6c5353"
       id="path3041"
       sodipodi:sides="3"
       sodipodi:cx="348.57144"
       sodipodi:cy="549.50507"
       sodipodi:r1="40.908058"
       sodipodi:r2="20.454029"
       sodipodi:arg1="1.7818897"
       sodipodi:arg2="2.8290873"
       inkscape:flatsided="false"
       inkscape:rounded="0"
       inkscape:randomized="0"
       d="m 340.00001,589.50506 -10.89193,-33.71153 -10.89194,-33.71154 34.64102,7.42308 34.64101,7.42307 -23.74908,26.28846 z"
       inkscape:transform-center-x="-1.5833122"
       inkscape:transform-center-y="17.79665"
       transform="matrix(-0.62988322,-0.77668986,0.77668986,-0.62988322,148.76401,1231.3051)" />
    <path
       sodipodi:type="star"
       style="fill:#6c5353"
       id="path3041-4"
       sodipodi:sides="3"
       sodipodi:cx="348.57144"
       sodipodi:cy="549.50507"
       sodipodi:r1="40.908058"
       sodipodi:r2="20.454029"
       sodipodi:arg1="1.7818897"
       sodipodi:arg2="2.8290873"
       inkscape:flatsided="false"
       inkscape:rounded="0"
       inkscape:randomized="0"
       d="m 340.00001,589.50506 -10.89193,-33.71153 -10.89194,-33.71154 34.64102,7.42308 34.64101,7.42307 -23.74908,26.28846 z"
       inkscape:transform-center-x="14.873013"
       inkscape:transform-center-y="-33.346943"
       transform="matrix(0.99949111,-0.03189862,0.03189862,0.99949111,-197.85495,-183.33884)" />
    <path
       sodipodi:type="star"
       style="fill:#6c5353"
       id="path3041-4-0"
       sodipodi:sides="3"
       sodipodi:cx="348.57144"
       sodipodi:cy="549.50507"
       sodipodi:r1="40.908058"
       sodipodi:r2="20.454029"
       sodipodi:arg1="1.7818897"
       sodipodi:arg2="2.8290873"
       inkscape:flatsided="false"
       inkscape:rounded="0"
       inkscape:randomized="0"
       d="m 340.00001,589.50506 -10.89193,-33.71153 -10.89194,-33.71154 34.64102,7.42308 34.64101,7.42307 -23.74908,26.28846 z"
       inkscape:transform-center-x="32.10335"
       inkscape:transform-center-y="-24.954568"
       transform="matrix(0.94510988,-0.32675267,0.32675267,0.94510988,41.406545,-46.976741)" />
    <path
       style="fill:none;stroke:#000000;stroke-width:1px;stroke-linecap:butt;stroke-linejoin:miter;stroke-opacity:1"
       d="m 257.14286,606.6479 -94.28572,-8.57143"
       id="path3085"
       inkscape:connector-curvature="0" />
    <path
       style="fill:none;stroke:#000000;stroke-width:1px;stroke-linecap:butt;stroke-linejoin:miter;stroke-opacity:1"
       d="M 265.71429,635.21933 240,638.07647 l -65.71429,0"
       id="path3087"
       inkscape:connector-curvature="0" />
    <path
       style="fill:none;stroke:#000000;stroke-width:1px;stroke-linecap:butt;stroke-linejoin:miter;stroke-opacity:1"
       d="M 262.85714,658.07647 180,669.50504"
       id="path3089"
       inkscape:connector-curvature="0" />
    <path
       style="fill:none;stroke:#000000;stroke-width:1px;stroke-linecap:butt;stroke-linejoin:miter;stroke-opacity:1"
       d="m 457.14286,592.36218 74.28571,-5.71428"
       id="path3091"
       inkscape:connector-curvature="0" />
    <path
       style="fill:none;stroke:#000000;stroke-width:1px;stroke-linecap:butt;stroke-linejoin:miter;stroke-opacity:1"
       d="m 437.14286,623.79075 100,5.71429"
       id="path3093"
       inkscape:connector-curvature="0" />
    <path
       style="fill:none;stroke:#000000;stroke-width:1px;stroke-linecap:butt;stroke-linejoin:miter;stroke-opacity:1"
       d="m 437.14286,655.21933 80,11.42857"
       id="path3095"
       inkscape:connector-curvature="0" />
  </g>
</svg>
